<?xml version="1.0" standalone="no"?>
<!DOCTYPE svg PUBLIC "-//W3C//DTD SVG 1.1//EN" "http://www.w3.org/Graphics/SVG/1.1/DTD/svg11.dtd" >
<svg xmlns="http://www.w3.org/2000/svg">
<metadata></metadata>
<defs>
<font id="futura_hv_btheavy" horiz-adv-x="1255" >
<font-face units-per-em="2048" ascent="1556" descent="-492" />
<missing-glyph horiz-adv-x="629" />
<glyph horiz-adv-x="2048" />
<glyph horiz-adv-x="2048" />
<glyph unicode="&#xd;" horiz-adv-x="629" />
<glyph unicode=" "  horiz-adv-x="629" />
<glyph unicode="&#x09;" horiz-adv-x="629" />
<glyph unicode="&#xa0;" horiz-adv-x="629" />
<glyph unicode="!" horiz-adv-x="688" d="M172 133q0 71 50 120.5t122 49.5q71 0 120.5 -49t49.5 -121t-49.5 -122t-120.5 -50t-121.5 51t-50.5 121zM201 457v1040h284v-1040h-284z" />
<glyph unicode="&#x22;" horiz-adv-x="678" d="M80 879v559h192v-559h-192zM406 879v559h192v-559h-192z" />
<glyph unicode="#" horiz-adv-x="1575" d="M45 406l76 200h282l86 242h-299l74 201h297l148 415h221l-146 -415h242l148 415h221l-148 -415h283l-74 -201h-280l-84 -242h290l-71 -200h-291l-148 -416h-221l148 416h-244l-149 -416h-220l146 416h-287zM621 604h251l86 244h-249z" />
<glyph unicode="$" d="M111 219l174 187q36 -80 107 -123t167 -43v389q-234 99 -331 200.5t-97 241.5q0 159 126 268t333 125v115h94v-116q116 -4 205 -48t158 -133l-185 -168q-34 56 -75.5 84.5t-102.5 36.5v-367q212 -85 312 -191t100 -245q0 -177 -119 -292.5t-322 -133.5v-158h-96v156 q-161 5 -275.5 60t-172.5 155zM436 1075q0 -54 38.5 -97t115.5 -75v332q-71 -15 -112.5 -58.5t-41.5 -101.5zM655 250q69 19 108.5 65.5t39.5 108.5q0 54 -34 92t-114 72v-338z" />
<glyph unicode="%" horiz-adv-x="1731" d="M39 1075q0 189 93.5 296.5t258.5 107.5q167 0 258.5 -106t91.5 -298q0 -191 -92.5 -298t-257.5 -107q-166 0 -259 106.5t-93 298.5zM254 1075q0 -125 36 -193.5t101 -68.5q68 0 102.5 66.5t34.5 195.5q0 127 -35 193.5t-102 66.5q-66 0 -101.5 -67t-35.5 -193zM360 -39 l857 1518h149l-856 -1518h-150zM987 367q0 189 93.5 296t258.5 107q168 0 260.5 -105.5t92.5 -297.5q0 -191 -93.5 -298.5t-259.5 -107.5t-259 107t-93 299zM1202 365q0 -125 36 -193t101 -68q68 0 104 67.5t36 195.5q0 126 -35.5 193t-102.5 67q-66 0 -102.5 -68.5 t-36.5 -193.5z" />
<glyph unicode="&#x26;" horiz-adv-x="1464" d="M96 385q0 125 76.5 231t233.5 199q-83 82 -117.5 157t-34.5 163q0 149 106.5 238t286.5 89q173 0 275 -84t102 -225q0 -97 -59.5 -179t-208.5 -183l248 -287q64 61 116 116.5t97 110.5l161 -172q-51 -57 -105 -114.5t-118 -120.5l268 -324h-329l-125 143 q-97 -95 -190.5 -136.5t-211.5 -41.5q-216 0 -343.5 115t-127.5 305zM367 403q0 -80 61 -139t145 -59q76 0 139 28.5t107 83.5l-276 332l-31 -22q-75 -55 -110 -109t-35 -115zM498 1137q0 -29 11.5 -59t33.5 -56l71 -88l52 31q57 35 85.5 78.5t28.5 95.5q0 63 -38.5 102 t-98.5 39q-65 0 -105 -39.5t-40 -103.5z" />
<glyph unicode="'" horiz-adv-x="352" d="M80 879v559h192v-559h-192z" />
<glyph unicode="(" horiz-adv-x="688" d="M164 514q0 294 58.5 539.5t178.5 462.5l226 -50q-108 -216 -159.5 -446.5t-51.5 -491.5q0 -287 51 -514.5t160 -429.5l-226 -53q-117 219 -177 467t-60 516z" />
<glyph unicode=")" horiz-adv-x="688" d="M61 -416q109 202 160 429.5t51 514.5q0 263 -51.5 492t-159.5 446l226 50q119 -212 178 -462.5t59 -539.5q0 -268 -60 -516t-177 -467z" />
<glyph unicode="*" horiz-adv-x="973" d="M129 971l233 121l-229 120l82 138l209 -150l-14 264h161l-14 -260l205 146l80 -138l-224 -122l220 -115l-76 -139l-207 147l16 -250h-159l16 246l-213 -145z" />
<glyph unicode="+" horiz-adv-x="1706" d="M254 512v199h498v510h202v-510h498v-199h-498v-512h-202v512h-498z" />
<glyph unicode="," horiz-adv-x="629" d="M63 -332l193 627h307l-309 -627h-191z" />
<glyph unicode="-" horiz-adv-x="854" d="M147 362v252h560v-252h-560z" />
<glyph unicode="." horiz-adv-x="629" d="M141 141q0 72 50.5 123t121.5 51t121.5 -51t50.5 -123q0 -71 -50 -120.5t-122 -49.5q-71 0 -121.5 50t-50.5 120z" />
<glyph unicode="/" horiz-adv-x="930" d="M0 -190l717 1687h213l-717 -1687h-213z" />
<glyph unicode="0" d="M88 721q0 356 143.5 557t397.5 201q257 0 398.5 -198.5t141.5 -559.5q0 -358 -143 -559t-397 -201q-256 0 -398.5 199.5t-142.5 560.5zM391 719q0 -236 61 -362t175 -126q117 0 177 125t60 367q0 239 -60 363t-175 124q-116 0 -177 -126t-61 -365z" />
<glyph unicode="1" d="M219 1204l123 246h465v-1450h-295v1204h-293z" />
<glyph unicode="2" d="M80 0l520 682q108 141 150.5 222t42.5 143q0 86 -51.5 135t-141.5 49q-84 0 -134 -61.5t-50 -165.5v-7h-295v25q0 218 125 337.5t354 119.5q234 0 364 -107t130 -299q0 -216 -338 -638l-21 -25l-135 -168h494v-242h-1014z" />
<glyph unicode="3" d="M106 375v12h289v-4q0 -79 59.5 -128.5t155.5 -49.5q111 0 171.5 55t60.5 156q0 107 -62.5 162t-183.5 55q-6 0 -19 -1t-20 -1v256q6 0 18 -1t17 -1q108 0 162.5 46t54.5 138q0 78 -49.5 126t-130.5 48q-86 0 -135 -39t-58 -112h-278q11 186 135 286.5t346 100.5 q213 0 338 -105t125 -284q0 -125 -67.5 -212.5t-178.5 -107.5q129 -28 205 -129t76 -246q0 -201 -143 -317.5t-390 -116.5q-225 0 -361.5 114t-136.5 300z" />
<glyph unicode="4" d="M47 281v135l705 1063h268v-990h154v-208h-154v-281h-268v281h-705zM348 489h408v504q0 74 2.5 112t7.5 70q-19 -51 -45 -102t-57 -100z" />
<glyph unicode="5" d="M92 80l64 237q103 -69 177 -93.5t161 -24.5q145 0 228 71.5t83 194.5q0 128 -81 197t-232 69q-80 0 -148 -21.5t-125 -64.5l-69 43l182 762h755v-246h-565l-71 -297q51 16 97.5 23.5t94.5 7.5q207 0 338 -130t131 -335q0 -236 -160 -374t-438 -138q-123 0 -226.5 29 t-195.5 90z" />
<glyph unicode="6" d="M119 465q0 131 59.5 286t183.5 345l232 354h350l-418 -576q41 22 84 31.5t105 9.5q187 0 306.5 -127t119.5 -325q0 -226 -145.5 -364t-383.5 -138q-224 0 -358.5 138t-134.5 366zM403 451q0 -107 61 -169.5t165 -62.5q99 0 160 64t61 168q0 110 -61 172.5t-168 62.5 q-96 0 -157 -66t-61 -169z" />
<glyph unicode="7" d="M127 1204v246h1044v-92l-657 -1358h-313l585 1204h-659z" />
<glyph unicode="8" d="M102 387q0 143 72 246t199 141q-112 47 -164.5 123.5t-52.5 192.5q0 173 128 281t339 108q214 0 340.5 -108.5t126.5 -291.5q0 -108 -56 -186.5t-162 -118.5q125 -38 197 -140t72 -241q0 -202 -137 -317t-381 -115q-241 0 -381 115t-140 311zM397 422q0 -99 60.5 -157 t165.5 -58q104 0 163.5 57.5t59.5 157.5q0 102 -59 159.5t-164 57.5q-104 0 -165 -59t-61 -158zM440 1073q0 -79 48.5 -124.5t132.5 -45.5q86 0 135 44.5t49 123.5t-48.5 124.5t-131.5 45.5q-84 0 -134.5 -46t-50.5 -122z" />
<glyph unicode="9" d="M121 977q0 226 144 364t382 138q225 0 360.5 -137t135.5 -363q0 -133 -61.5 -291t-184.5 -342l-231 -346h-351l418 567q-42 -22 -86.5 -32.5t-101.5 -10.5q-187 0 -305.5 127t-118.5 326zM410 991q0 -110 60.5 -172.5t168.5 -62.5q96 0 156.5 65.5t60.5 169.5 q0 107 -60 169.5t-163 62.5q-100 0 -161.5 -64.5t-61.5 -167.5z" />
<glyph unicode=":" horiz-adv-x="688" d="M172 143q0 72 50 121t122 49q71 0 120.5 -49t49.5 -121q0 -71 -49.5 -121.5t-120.5 -50.5t-121.5 51t-50.5 121zM172 797q0 71 50 120.5t122 49.5q71 0 120.5 -49.5t49.5 -120.5q0 -72 -49.5 -122t-120.5 -50t-121.5 50.5t-50.5 121.5z" />
<glyph unicode=";" horiz-adv-x="688" d="M80 -332l190 627h310l-310 -627h-190zM264 797q0 71 50.5 120.5t121.5 49.5q72 0 122 -49.5t50 -120.5q0 -72 -50 -122t-122 -50q-71 0 -121.5 50.5t-50.5 121.5z" />
<glyph unicode="&#x3c;" horiz-adv-x="1706" d="M264 512v199l1178 483v-219l-893 -365l893 -364v-219z" />
<glyph unicode="=" horiz-adv-x="1706" d="M254 297v199h1198v-199h-1198zM254 727v199h1198v-199h-1198z" />
<glyph unicode="&#x3e;" horiz-adv-x="1706" d="M264 27v219l895 364l-895 365v219l1178 -483v-199z" />
<glyph unicode="?" horiz-adv-x="1186" d="M129 1055v32q0 186 126.5 298t334.5 112q203 0 320.5 -115t117.5 -315q0 -154 -82 -251t-239 -130v-258h-275v428h88q102 0 158.5 58.5t56.5 162.5q0 95 -41.5 146t-120.5 51t-121 -48t-42 -141q0 -5 1 -15t1 -15h-283zM397 133q0 71 50.5 120.5t121.5 49.5 q72 0 122 -49.5t50 -120.5t-50 -121.5t-122 -50.5q-71 0 -121.5 51t-50.5 121z" />
<glyph unicode="@" horiz-adv-x="2048" d="M90 520q0 167 52.5 318.5t154.5 275.5q148 181 356 274t463 93q169 0 317.5 -45.5t258.5 -128.5q135 -105 201.5 -239.5t66.5 -303.5q0 -165 -65.5 -304.5t-188.5 -238.5q-70 -56 -152.5 -85.5t-171.5 -29.5q-106 0 -159.5 42t-55.5 124q-55 -84 -127 -123.5t-170 -39.5 q-158 0 -240.5 86t-82.5 254q0 239 139.5 401t343.5 162q80 0 139 -33t97 -98l53 98h178l-147 -598q-3 -11 -5 -22.5t-2 -18.5q0 -35 24 -52.5t71 -17.5q39 0 81.5 20t79.5 56q86 80 130.5 187t44.5 235q0 240 -185.5 394.5t-478.5 154.5q-141 0 -262.5 -34t-220.5 -101 q-170 -114 -261.5 -285t-91.5 -375q0 -307 207 -490.5t553 -183.5q162 0 316.5 49t287.5 142l82 -117q-153 -115 -324.5 -173t-357.5 -58q-192 0 -353 48.5t-286 143.5q-155 121 -232 279t-77 358zM760 444q0 -92 40.5 -140t117.5 -48q83 0 151.5 63t93.5 164l54 217 q-13 81 -57.5 123.5t-117.5 42.5q-114 0 -198 -124t-84 -298z" />
<glyph unicode="A" horiz-adv-x="1460" d="M-10 0l557 1464h358l565 -1464h-356l-119 311h-567l-102 -311h-336zM516 557h406l-164 473q-7 21 -18 72t-23 125q-13 -71 -25 -127.5t-18 -75.5z" />
<glyph unicode="B" horiz-adv-x="1223" d="M164 0v1464h274q213 0 311.5 -16.5t170.5 -54.5q85 -49 131.5 -129t46.5 -181q0 -130 -77 -208.5t-230 -104.5q177 -26 267.5 -115t90.5 -237q0 -108 -52 -197.5t-143 -138.5q-81 -44 -190 -63t-361 -19h-32h-207zM477 244h123q118 0 179 51.5t61 150.5q0 93 -60.5 142 t-175.5 49h-127v-393zM477 879h70q142 0 201 40t59 134q0 92 -56.5 131t-197.5 39h-76v-344z" />
<glyph unicode="C" horiz-adv-x="1470" d="M100 731q0 334 225 551t580 217q119 0 230 -25t219 -77l-11 -314q-95 85 -195 124.5t-214 39.5q-234 0 -373 -140t-139 -376q0 -231 129 -366.5t352 -135.5q127 0 236 42.5t202 127.5l-2 -321q-100 -59 -209.5 -88t-230.5 -29q-350 0 -574.5 217.5t-224.5 552.5z" />
<glyph unicode="D" horiz-adv-x="1542" d="M164 0v1464h399q236 0 372 -33t239 -110q133 -99 201.5 -249.5t68.5 -342.5q0 -195 -70 -345.5t-205 -248.5q-100 -72 -222.5 -103.5t-358.5 -31.5h-111h-313zM477 264h174q246 0 358.5 112t112.5 355q0 242 -112.5 354.5t-358.5 112.5h-174v-934z" />
<glyph unicode="E" horiz-adv-x="1169" d="M164 0v1464h862v-264h-549v-301h549v-266h-549v-367h549v-266h-862z" />
<glyph unicode="F" horiz-adv-x="1104" d="M164 0v1464h862v-264h-549v-301h549v-266h-549v-633h-313z" />
<glyph unicode="G" horiz-adv-x="1645" d="M104 731q0 332 222 549t561 217q179 0 328 -75t266 -224l-211 -156q-79 98 -166 141.5t-201 43.5q-217 0 -347 -135t-130 -361q0 -222 130.5 -358.5t340.5 -136.5q154 0 250 72.5t96 189.5v16h-352v258h667q2 -13 2.5 -28t0.5 -46q0 -329 -188 -533t-486 -204 q-341 0 -562 217.5t-221 552.5z" />
<glyph unicode="H" horiz-adv-x="1587" d="M164 0v1464h313v-587h635v587h313v-1464h-313v612h-635v-612h-313z" />
<glyph unicode="I" horiz-adv-x="653" d="M170 0v1464h313v-1464h-313z" />
<glyph unicode="J" horiz-adv-x="909" d="M0 264l227 108q8 -69 35.5 -104t75.5 -35q60 0 83 43.5t23 194.5v131v862h314v-964q0 -165 -13 -242t-43 -131q-44 -82 -129.5 -124t-207.5 -42q-154 0 -246.5 77t-118.5 226z" />
<glyph unicode="K" horiz-adv-x="1327" d="M164 0v1464h313v-663l488 663h362l-524 -667l543 -797h-377l-492 766v-766h-313z" />
<glyph unicode="L" horiz-adv-x="1010" d="M164 0v1464h313v-1198h500v-266h-813z" />
<glyph unicode="M" horiz-adv-x="1819" d="M37 0l223 1464h328l282 -862q9 -27 19.5 -79t19.5 -119q8 68 18 121.5t19 78.5l287 860h323l224 -1464h-297l-107 883q-12 98 -16 148t-4 93q0 23 0.5 34.5t1.5 20.5q-15 -86 -28.5 -148.5t-24.5 -94.5l-310 -936h-176l-305 936q-4 13 -17.5 72t-37.5 172v-43 q0 -102 -18 -250l-1 -4l-106 -883h-297z" />
<glyph unicode="N" horiz-adv-x="1708" d="M164 0v1464h325l648 -852q28 -36 61.5 -101.5t69.5 -154.5q-11 65 -16 129t-5 160v819h299v-1464h-307l-666 868q-28 36 -61 101.5t-70 156.5q11 -63 16 -127.5t5 -162.5v-836h-299z" />
<glyph unicode="O" horiz-adv-x="1763" d="M100 729q0 158 58 296.5t170 246.5q110 107 255.5 166t299.5 59q153 0 297.5 -59t255.5 -166q111 -108 169 -247t58 -296t-58.5 -297t-168.5 -246q-114 -109 -257 -167t-296 -58q-134 0 -262.5 45.5t-235.5 130.5q-138 110 -211.5 263t-73.5 329zM422 729 q0 -212 129 -350.5t332 -138.5q199 0 328.5 139.5t129.5 349.5q0 208 -131 350t-327 142q-199 0 -330 -141.5t-131 -350.5z" />
<glyph unicode="P" horiz-adv-x="1139" d="M164 0v1464h360q288 0 425.5 -110t137.5 -340q0 -213 -138.5 -334t-383.5 -121h-86v-559h-315zM479 803h45q128 0 186 53t58 170q0 108 -58 157.5t-186 49.5h-45v-430z" />
<glyph unicode="Q" horiz-adv-x="1763" d="M98 731q0 154 59 293.5t171 249.5q109 108 252.5 165.5t302.5 57.5q156 0 299 -57.5t254 -165.5q111 -109 170 -248t59 -295q0 -172 -71 -321t-208 -265l269 -315h-312l-159 188q-108 -28 -179.5 -40.5t-127.5 -12.5q-151 0 -296 59t-253 164q-111 108 -170.5 248.5 t-59.5 294.5zM422 729q0 -211 128.5 -350t326.5 -139q17 0 47.5 3.5t72.5 10.5l-211 242h306l108 -127q68 70 104.5 164.5t36.5 195.5q0 208 -131 350t-327 142q-199 0 -330 -141.5t-131 -350.5z" />
<glyph unicode="R" horiz-adv-x="1241" d="M164 0v1464h448q267 0 400 -103.5t133 -311.5q0 -151 -91 -258t-235 -125l404 -666h-361l-385 684v-684h-313zM477 840h47q190 0 251 41.5t61 144.5q0 108 -65.5 153.5t-246.5 45.5h-47v-385z" />
<glyph unicode="S" horiz-adv-x="1147" d="M70 186l174 197q33 -81 106 -127.5t164 -46.5q110 0 174 52t64 140q0 104 -213 207q-69 33 -109 54q-192 100 -266 195.5t-74 227.5q0 181 143.5 297.5t372.5 116.5q133 0 229.5 -46.5t170.5 -145.5l-185 -177q-33 64 -87.5 95.5t-131.5 31.5q-93 0 -150 -46.5 t-57 -120.5q0 -116 226 -212q45 -19 69 -30q186 -85 275.5 -192t89.5 -244q0 -206 -140.5 -328.5t-377.5 -122.5q-168 0 -288 58t-179 167z" />
<glyph unicode="T" horiz-adv-x="1110" d="M39 1198v266h1032v-266h-360v-1198h-314v1198h-358z" />
<glyph unicode="U" horiz-adv-x="1583" d="M158 553v911h311v-862q0 -181 80 -272.5t239 -91.5q160 0 242 92t82 272v862h311v-911q0 -298 -157 -445t-473 -147q-321 0 -478 147t-157 445z" />
<glyph unicode="V" horiz-adv-x="1370" d="M-6 1464h346l285 -913q8 -28 25 -104t36 -173q13 94 28.5 167t30.5 120l289 903h342l-545 -1464h-296z" />
<glyph unicode="W" horiz-adv-x="2058" d="M37 1464h313l193 -813q16 -70 26 -151.5t15 -177.5q19 127 70 322l5 21l215 799h308l217 -794q21 -76 39 -163t34 -195q2 91 13.5 179.5t34.5 178.5l190 794h309l-383 -1464h-301l-262 934q-19 64 -30 129t-15 135q-5 -74 -15.5 -140t-27.5 -124l-264 -934h-301z" />
<glyph unicode="X" horiz-adv-x="1229" d="M-6 0l452 766l-440 698h334l209 -383q24 -41 38 -72.5t25 -66.5q13 36 29 71t39 74l207 377h332l-437 -698l451 -766h-338l-217 406q-20 37 -35.5 77t-28.5 84q-17 -52 -34 -93t-33 -71l-217 -403h-336z" />
<glyph unicode="Y" horiz-adv-x="1241" d="M-31 1464h367l217 -401q16 -30 33 -76t35 -106q14 51 31.5 96t39.5 88l215 399h365l-494 -796v-668h-313v668z" />
<glyph unicode="Z" horiz-adv-x="1298" d="M6 0l758 1214h-680v250h1182l-758 -1212h727v-252h-1229z" />
<glyph unicode="[" horiz-adv-x="688" d="M182 -451v1948h451v-231h-199v-1483h199v-234h-451z" />
<glyph unicode="\" horiz-adv-x="930" d="M0 1497h213l717 -1687h-213z" />
<glyph unicode="]" horiz-adv-x="688" d="M55 -217h199v1483h-199v231h451v-1948h-451v234z" />
<glyph unicode="^" horiz-adv-x="2048" d="M416 899l481 561h252l481 -561h-235l-371 371l-373 -371h-235z" />
<glyph unicode="_" horiz-adv-x="1024" d="M0 -279h1024v-204h-1024v204z" />
<glyph unicode="`" horiz-adv-x="1024" d="M219 1495h258l197 -369h-142z" />
<glyph unicode="a" horiz-adv-x="1251" d="M78 489q0 248 117.5 386.5t326.5 138.5q109 0 191.5 -49t138.5 -146v162h270v-981h-276l4 141q-58 -93 -139.5 -136.5t-198.5 -43.5q-195 0 -314.5 145t-119.5 383zM367 492q0 -133 65.5 -207t181.5 -74q118 0 183 74t65 207q0 132 -66.5 209t-179.5 77 q-116 0 -182.5 -76.5t-66.5 -209.5z" />
<glyph unicode="b" horiz-adv-x="1262" d="M139 0v1550h273v-559q0 -46 -3.5 -91.5t-9.5 -88.5q70 106 152 154.5t188 48.5q210 0 327.5 -138.5t117.5 -386.5q0 -239 -119 -383.5t-313 -144.5q-117 0 -198.5 43.5t-139.5 136.5l2 -141h-277zM399 492q0 -133 65.5 -207t182.5 -74t182.5 74t65.5 207t-66.5 209.5 t-183.5 76.5q-113 0 -179.5 -77t-66.5 -209z" />
<glyph unicode="c" horiz-adv-x="938" d="M76 492q0 231 147 376.5t381 145.5q78 0 140 -15t118 -47l-2 -286q-45 46 -104 71t-125 25q-120 0 -192 -73.5t-72 -194.5q0 -124 73.5 -197.5t198.5 -73.5q69 0 122.5 25t98.5 78l2 -297q-58 -35 -122 -51.5t-140 -16.5q-232 0 -378 147.5t-146 383.5z" />
<glyph unicode="d" horiz-adv-x="1262" d="M78 489q0 249 117.5 388t326.5 139q107 0 188 -49t152 -155q-5 36 -7.5 79.5t-2.5 99.5v559h270v-1550h-276l4 141q-58 -93 -139.5 -136.5t-198.5 -43.5q-195 0 -314.5 145t-119.5 383zM367 494q0 -133 65.5 -208t181.5 -75q118 0 183 74t65 207q0 132 -66.5 209 t-179.5 77q-116 0 -182.5 -75.5t-66.5 -208.5z" />
<glyph unicode="e" horiz-adv-x="1174" d="M78 485q0 231 145.5 380t372.5 149q234 0 370 -139.5t136 -380.5q0 -13 -1 -28.5t-4 -45.5h-737q17 -106 77 -158.5t163 -52.5q78 0 134.5 30t94.5 91l230 -115q-80 -129 -194 -191.5t-271 -62.5q-238 0 -377 142t-139 382zM369 592h446q-12 93 -67.5 140.5t-151.5 47.5 t-153.5 -47.5t-73.5 -140.5z" />
<glyph unicode="f" horiz-adv-x="678" d="M47 758v223h127v221q0 198 91 283.5t300 85.5q23 0 53.5 -4.5t79.5 -16.5v-227q-26 14 -50 20.5t-50 6.5q-75 0 -107 -39.5t-32 -136.5v-193h182v-223h-182v-758h-285v758h-127z" />
<glyph unicode="g" horiz-adv-x="1262" d="M78 494q0 244 118 382t326 138q107 0 190.5 -49.5t139.5 -145.5v162h268v-965q0 -155 -18.5 -218t-63.5 -109q-64 -69 -164 -102t-243 -33q-239 0 -363 76t-135 231h313q7 -57 52 -84t133 -27q116 0 167.5 60t51.5 200v140q-57 -91 -137.5 -135t-190.5 -44 q-202 0 -323 141.5t-121 381.5zM367 492q0 -131 65 -204t182 -73t182.5 73t65.5 204q0 130 -66 205t-180 75q-117 0 -183 -74.5t-66 -205.5z" />
<glyph unicode="h" horiz-adv-x="1266" d="M139 0v1550h279v-551q0 -46 -3 -91.5t-9 -88.5q88 103 176.5 149t197.5 46q114 0 192.5 -39t121.5 -117q22 -41 31.5 -92.5t9.5 -161.5v-31v-573h-285v485q0 181 -42 239t-144 58q-59 0 -108.5 -24.5t-82.5 -69.5q-26 -35 -37.5 -80t-11.5 -137v-39v-432h-285z" />
<glyph unicode="i" horiz-adv-x="584" d="M125 1384q0 68 49 117t117 49q69 0 118.5 -48.5t49.5 -117.5t-49.5 -118t-118.5 -49q-68 0 -117 50t-49 117zM150 0v981h284v-981h-284z" />
<glyph unicode="j" horiz-adv-x="584" d="M125 1384q0 68 49 117t117 49q69 0 118.5 -48.5t49.5 -117.5t-49.5 -118t-118.5 -49q-68 0 -117 50t-49 117zM150 -446v1427h284v-1427h-284z" />
<glyph unicode="k" horiz-adv-x="1157" d="M139 0v1550h285v-1003l364 434h342l-395 -434l434 -547h-352l-393 520v-520h-285z" />
<glyph unicode="l" horiz-adv-x="584" d="M150 0v1550h284v-1550h-284z" />
<glyph unicode="m" horiz-adv-x="1862" d="M135 0v981h285v-154q70 97 149.5 142t180.5 45q122 0 198.5 -50t108.5 -151q68 100 154.5 150.5t189.5 50.5q104 0 176.5 -38.5t112.5 -115.5q21 -42 30 -95t9 -161v-31v-573h-285v485q0 179 -36.5 238t-127.5 59q-110 0 -159.5 -82t-49.5 -268v-432h-285v485 q0 173 -34 234t-117 61q-113 0 -164 -82.5t-51 -265.5v-432h-285z" />
<glyph unicode="n" horiz-adv-x="1266" d="M139 0v981h279v-154q77 96 165.5 141.5t196.5 45.5q114 0 191.5 -38.5t122.5 -117.5q22 -41 31.5 -92.5t9.5 -161.5v-31v-573h-285v485q0 181 -42 239t-144 58q-59 0 -108.5 -24.5t-82.5 -69.5q-26 -35 -37.5 -80t-11.5 -137v-39v-432h-285z" />
<glyph unicode="o" horiz-adv-x="1247" d="M76 487q0 225 156 376t393 151q238 0 392 -149t154 -378q0 -226 -154.5 -376t-391.5 -150q-239 0 -394 150t-155 376zM367 489q0 -120 69 -192t187 -72q117 0 187.5 72t70.5 192t-70 191.5t-188 71.5t-187 -71t-69 -192z" />
<glyph unicode="p" horiz-adv-x="1262" d="M139 -446v1427h273v-162q56 98 137.5 146.5t189.5 48.5q209 0 327 -138.5t118 -386.5q0 -239 -119 -383.5t-313 -144.5q-117 0 -198.5 43.5t-139.5 136.5q5 -37 7.5 -80.5t2.5 -99.5v-407h-285zM399 492q0 -133 65.5 -207t182.5 -74t182.5 74t65.5 207t-66.5 209.5 t-183.5 76.5q-113 0 -179.5 -77t-66.5 -209z" />
<glyph unicode="q" horiz-adv-x="1262" d="M78 489q0 248 117.5 386.5t326.5 138.5q109 0 191.5 -49t138.5 -146v162h270v-1427h-284v407q0 47 3 92.5t9 87.5q-58 -93 -139.5 -136.5t-198.5 -43.5q-195 0 -314.5 145t-119.5 383zM367 492q0 -133 65.5 -207t181.5 -74q118 0 183 74t65 207q0 132 -66.5 209 t-179.5 77q-116 0 -182.5 -76.5t-66.5 -209.5z" />
<glyph unicode="r" horiz-adv-x="834" d="M139 0v981h281l-6 -252q43 143 123.5 214t199.5 71q27 0 89 -10l18 -3l-43 -306q-32 13 -64.5 19.5t-68.5 6.5q-130 0 -187 -66.5t-57 -222.5v-432h-285z" />
<glyph unicode="s" horiz-adv-x="934" d="M43 172l219 113q11 -57 59 -90t119 -33q70 0 110 25.5t40 70.5q0 71 -142 119q-44 15 -70 25q-173 65 -239.5 131t-66.5 163q0 144 113 233t298 89q132 0 228.5 -53t140.5 -150l-209 -104q-17 55 -59 83.5t-105 28.5t-102 -26t-39 -68q0 -73 194 -136q23 -7 35 -11 q161 -53 229 -123.5t68 -179.5q0 -146 -113 -232t-305 -86q-152 0 -259.5 56.5t-143.5 154.5z" />
<glyph unicode="t" horiz-adv-x="633" d="M37 758v223h137v326h285v-326h137v-223h-137v-758h-285v758h-137z" />
<glyph unicode="u" horiz-adv-x="1268" d="M135 465v516h283v-516q0 -130 50.5 -186t164.5 -56q113 0 164 56.5t51 185.5v516h285v-516q0 -259 -121 -381.5t-375 -122.5q-259 0 -380.5 122t-121.5 382z" />
<glyph unicode="v" horiz-adv-x="1053" d="M-18 981h329l166 -510q20 -62 32 -115t17 -104q12 77 24 131t28 98l167 500h324l-403 -981h-285z" />
<glyph unicode="w" horiz-adv-x="1673" d="M-12 981h311l150 -487q20 -66 33 -119.5t22 -109.5q8 61 19 117.5t26 109.5l131 489h311l142 -508q4 -15 10.5 -53t23.5 -156q9 46 22.5 97t33.5 114l153 506h310l-340 -981h-304l-147 508q-4 14 -13 45q-33 115 -48 188q-13 -68 -25.5 -124t-26.5 -105l-151 -512h-303z " />
<glyph unicode="x" horiz-adv-x="1020" d="M-18 0l348 498l-330 483h356l97 -182q18 -35 32.5 -72t26.5 -78q11 38 27 75.5t39 76.5l104 180h338l-336 -477l354 -504h-354l-115 201q-20 38 -35.5 75.5t-25.5 75.5q-10 -39 -26 -75.5t-42 -77.5l-121 -199h-337z" />
<glyph unicode="y" horiz-adv-x="1053" d="M-14 981h329l170 -449q17 -42 28 -96.5t17 -121.5q10 54 25 110t37 119l149 438h326l-584 -1427h-315l213 522z" />
<glyph unicode="z" horiz-adv-x="985" d="M0 0l520 758h-457v223h889l-514 -758h502v-223h-940z" />
<glyph unicode="{" horiz-adv-x="1024" d="M158 426v209q7 0 21 -1t20 -1q120 0 171.5 58t51.5 196v250q0 143 23.5 201t80.5 92q47 25 114 37t167 12q12 0 37 -1t39 -1v-209q-9 0 -25 1t-22 1q-101 0 -136.5 -38.5t-35.5 -162.5v-240q0 -148 -45 -210t-162 -89q117 -27 162 -88t45 -209v-241q0 -123 35 -161 t137 -38q6 0 22 1t25 1v-209q-14 0 -39 -1t-37 -1q-100 0 -167 12t-114 37q-57 34 -80.5 91.5t-23.5 199.5v252q0 137 -51 194.5t-172 57.5q-6 0 -20 -1t-21 -1z" />
<glyph unicode="|" horiz-adv-x="1024" d="M410 -483v2048h206v-2048h-206z" />
<glyph unicode="}" horiz-adv-x="1024" d="M143 -205q9 0 25 -1t22 -1q101 0 136.5 38.5t35.5 160.5v239q0 150 45 211.5t162 87.5q-117 27 -162 89t-45 210v242q0 122 -35.5 160.5t-136.5 38.5q-6 0 -22 -1t-25 -1v209h68q110 0 177 -12t112 -38q57 -32 80.5 -91.5t23.5 -198.5v-252q0 -137 51 -194.5t172 -57.5 q6 0 20 1t21 1v-209h-37q-125 0 -176 -56t-51 -194v-252q0 -143 -23.5 -201t-80.5 -90q-47 -25 -114 -37t-167 -12q-12 0 -37 1t-39 1v209z" />
<glyph unicode="~" horiz-adv-x="1706" d="M178 418v221q107 72 204 107.5t183 35.5q117 0 291 -58l4 -1q18 -6 55 -19q155 -55 240 -55t175 37t200 117v-221q-104 -71 -196.5 -104.5t-182.5 -33.5q-46 0 -92 8t-92 23q-24 8 -71 25q-219 75 -333 75q-85 0 -177.5 -37.5t-207.5 -119.5z" />
<glyph unicode="&#xa0;" />
<glyph unicode="&#xa1;" horiz-adv-x="688" d="M172 1327q0 70 50.5 120t121.5 50q72 0 121 -49.5t49 -120.5t-49.5 -120.5t-120.5 -49.5q-72 0 -122 49.5t-50 120.5zM201 -39v1043h284v-1043h-284z" />
<glyph unicode="&#xa2;" d="M174 733q0 200 124.5 338t334.5 170v166h112v-164q56 -6 109 -21t107 -40l-3 -287q-44 46 -102.5 70t-126.5 24q-120 0 -192 -72.5t-72 -193.5q0 -124 73.5 -197t198.5 -73q70 0 123.5 24t97.5 76l3 -297q-49 -26 -102.5 -42.5t-113.5 -23.5v-202h-112v202 q-223 39 -341 179t-118 364z" />
<glyph unicode="&#xa3;" d="M59 102q68 87 134 130t143 51q23 23 33 51t10 76q0 51 -13.5 95t-41.5 85h-226v143h162q-54 80 -80 155t-26 148q0 188 153.5 315.5t384.5 127.5q211 0 350.5 -120t145.5 -304l-277 -37q-7 106 -66 161.5t-163 55.5q-100 0 -162.5 -54.5t-62.5 -140.5q0 -71 83 -266 q11 -27 17 -41h367v-143h-315q2 -27 3.5 -43.5t1.5 -26.5q0 -71 -29 -128t-98 -118h17q65 0 179.5 -45t170.5 -45q55 0 97 27.5t75 83.5l154 -164q-54 -86 -128 -130t-163 -44q-114 0 -271 56.5t-196 56.5q-52 0 -107 -32t-100 -89z" />
<glyph unicode="&#xa4;" d="M0 541l27 116l131 1q-1 11 -1.5 24.5t-0.5 40.5q0 30 0.5 45.5t0.5 28.5h-157l27 118h147q51 261 227 412.5t430 151.5q98 0 186 -29.5t167 -87.5v-297q-74 77 -156 115.5t-172 38.5q-135 0 -231.5 -80.5t-135.5 -223.5h539l-39 -118l-522 -1q-1 -12 -1.5 -27.5 t-0.5 -45.5q0 -27 0.5 -40.5t1.5 -24.5l477 -1l-41 -116h-422q34 -150 129.5 -234t231.5 -84q94 0 185.5 37.5t164.5 106.5l-10 -299q-80 -52 -171 -79.5t-182 -27.5q-260 0 -435 154t-222 426h-172z" />
<glyph unicode="&#xa5;" d="M-6 1452h332l227 -399q20 -37 40 -85t38 -104q16 55 35 101.5t43 87.5l229 399h330l-262 -420h231v-168h-338l-98 -159h436v-168h-463v-537h-285v537h-475v168h447l-99 159h-348v168h244z" />
<glyph unicode="&#xa6;" horiz-adv-x="1024" d="M410 -350v758h206v-758h-206zM410 674v758h206v-758h-206z" />
<glyph unicode="&#xa7;" horiz-adv-x="1176" d="M106 528q0 133 78 220.5t230 125.5q-124 36 -184 106.5t-60 178.5q0 150 122.5 245t319.5 95q186 0 294 -89.5t108 -244.5v-28h-266q-5 81 -46 119t-127 38q-65 0 -107 -36t-42 -93t45 -101.5t141 -82.5q297 -115 381 -205.5t84 -230.5q0 -129 -77.5 -217t-225.5 -127 q113 -39 174.5 -120t61.5 -192q0 -158 -116 -250t-319 -92q-196 0 -315 99t-119 260q0 4 1 14.5t1 16.5l265 -1q1 -90 44.5 -137t127.5 -47q80 0 127 41t47 109q0 113 -225 204q-27 11 -42 17q-223 92 -302 179.5t-79 225.5zM373 535q0 -88 62.5 -148.5t152.5 -60.5 q89 0 152 60.5t63 148.5q0 87 -63 148.5t-152 61.5t-152 -61.5t-63 -148.5z" />
<glyph unicode="&#xa8;" horiz-adv-x="1024" d="M195 1309q0 51 39.5 90t91.5 39q53 0 91 -38t38 -91q0 -57 -37 -94t-92 -37q-56 0 -93.5 37.5t-37.5 93.5zM569 1309q0 51 39.5 90t91.5 39q54 0 91.5 -38t37.5 -91q0 -57 -36.5 -94t-92.5 -37q-55 0 -93 37.5t-38 93.5z" />
<glyph unicode="&#xa9;" horiz-adv-x="1706" d="M111 733q0 149 56 284.5t163 244.5q105 106 238 161.5t284 55.5q152 0 287.5 -56t242.5 -163q105 -105 160 -240.5t55 -286.5q0 -152 -54.5 -284t-160.5 -236q-111 -108 -248 -165.5t-282 -57.5q-147 0 -280.5 56.5t-241.5 164.5q-107 106 -163 240.5t-56 281.5zM233 735 q0 -125 47 -237t136 -201q88 -88 201 -135t237 -47t237.5 47t204.5 137q88 86 133.5 197t45.5 239q0 126 -46.5 238.5t-134.5 200.5q-89 89 -201 135.5t-239 46.5q-128 0 -239.5 -46t-198.5 -134q-89 -90 -136 -203.5t-47 -237.5zM453 729q0 206 109.5 328.5t293.5 122.5 q152 0 250.5 -78t105.5 -205h-188q-8 70 -53 108.5t-119 38.5q-91 0 -143 -81.5t-52 -227.5q0 -147 52 -224t151 -77q73 0 117 42t53 119l193 1q-8 -139 -109 -223t-260 -84q-186 0 -293.5 118t-107.5 322z" />
<glyph unicode="&#xaa;" horiz-adv-x="938" d="M49 1122q0 176 91 275.5t251 99.5q83 0 143 -31t95 -92v101h223v-703h-227l2 86q-30 -54 -92.5 -83.5t-149.5 -29.5q-152 0 -244 103t-92 274zM109 487v123h684v-123h-684zM285 1126q0 -93 46.5 -145.5t129.5 -52.5t129.5 51.5t46.5 144.5q0 92 -47 146.5t-127 54.5 q-84 0 -131 -53t-47 -146z" />
<glyph unicode="&#xab;" horiz-adv-x="1059" d="M63 487l357 455l153 -106l-276 -351l270 -346l-149 -106zM485 487l357 455l153 -106l-278 -351l270 -346l-149 -106z" />
<glyph unicode="&#xac;" horiz-adv-x="1706" d="M254 668v196h1198v-502h-199v306h-999z" />
<glyph unicode="&#xad;" horiz-adv-x="854" d="M147 362v252h560v-252h-560z" />
<glyph unicode="&#xae;" horiz-adv-x="1706" d="M111 733q0 102 27 198.5t81 188.5q101 170 267 264.5t366 94.5q154 0 290.5 -57.5t243.5 -166.5q103 -104 157 -238t54 -284q0 -152 -56 -287.5t-163 -238.5q-107 -105 -243.5 -161t-282.5 -56q-149 0 -285 58t-243 167q-104 105 -158.5 238.5t-54.5 279.5zM233 735 q0 -124 46 -235.5t133 -198.5q89 -91 203 -139.5t237 -48.5q120 0 233.5 47t206.5 135q87 84 135 196t48 232q0 133 -44.5 245t-132.5 201q-90 93 -202.5 140t-241.5 47q-127 0 -236 -44.5t-196 -131.5q-91 -91 -140 -206.5t-49 -238.5zM545 336v825h323q176 0 264.5 -59.5 t88.5 -177.5q0 -82 -48 -140t-133 -79l185 -369h-224l-157 338h-99v-338h-200zM745 795h99q88 0 129 28t41 88q0 63 -44 93t-136 30h-89v-239z" />
<glyph unicode="&#xaf;" horiz-adv-x="1024" d="M225 1229v155h574v-155h-574z" />
<glyph unicode="&#xb0;" horiz-adv-x="674" d="M35 1159q0 127 88.5 216t214.5 89t214.5 -89.5t88.5 -215.5q0 -125 -89 -214t-216 -89q-126 0 -213.5 88t-87.5 215zM162 1161q0 -74 51 -125t125 -51q72 0 123 52t51 124t-51 123t-123 51q-73 0 -124.5 -51t-51.5 -123z" />
<glyph unicode="&#xb1;" horiz-adv-x="1706" d="M254 -2v199h1198v-199h-1198zM254 698v199h498v326h202v-326h498v-199h-498v-325h-202v325h-498z" />
<glyph unicode="&#xb2;" horiz-adv-x="829" d="M53 575l342 410q72 84 99.5 132.5t27.5 86.5q0 52 -33.5 81.5t-93.5 29.5q-54 0 -87.5 -37.5t-33.5 -99.5v-4h-194v14q0 131 82.5 202.5t232.5 71.5q156 0 241 -64t85 -179q0 -132 -229 -390l-6 -7l-91 -101h326v-146h-668z" />
<glyph unicode="&#xb3;" horiz-adv-x="829" d="M70 801v6h190v-2q0 -48 39.5 -77.5t103.5 -29.5q73 0 112.5 33t39.5 94q0 64 -40.5 96.5t-121.5 32.5h-24v154q2 0 10 -1t12 -1q71 0 107.5 28t36.5 83q0 46 -33 75t-86 29q-57 0 -89 -23t-38 -67h-185q7 111 89 171t229 60q141 0 223 -63t82 -170q0 -74 -45 -127 t-117 -64q85 -17 135 -78t50 -147q0 -121 -94 -190.5t-257 -69.5q-150 0 -239.5 68t-89.5 180z" />
<glyph unicode="&#xb4;" horiz-adv-x="1024" d="M350 1126l197 369h258l-313 -369h-142z" />
<glyph unicode="&#xb5;" horiz-adv-x="1249" d="M-63 -438l268 1530h289l-76 -435q-15 -80 -23 -151.5t-8 -116.5q0 -93 42 -138.5t128 -45.5q100 0 155.5 82t92.5 291l90 514h289l-193 -1092h-268l18 117q-42 -78 -93.5 -114t-121.5 -36q-67 0 -119 29.5t-94 91.5l-90 -526h-286z" />
<glyph unicode="&#xb6;" horiz-adv-x="1024" d="M41 1130q0 158 107 253.5t284 95.5h551v-111h-113v-1368h-151v1368h-158v-1368h-153v784q-167 6 -267 101t-100 245z" />
<glyph unicode="&#xb7;" horiz-adv-x="629" d="M141 721q0 71 50.5 120.5t121.5 49.5q72 0 122 -49.5t50 -120.5t-50 -121.5t-122 -50.5q-71 0 -121.5 51t-50.5 121z" />
<glyph unicode="&#xb8;" horiz-adv-x="1024" d="M238 -311q80 -21 147 -32t111 -11q51 0 75.5 18.5t24.5 56.5q0 37 -27.5 52.5t-93.5 15.5q-19 0 -32 -0.5t-25 -1.5v213h102v-90h15q116 0 175.5 -48.5t59.5 -144.5q0 -99 -66.5 -148.5t-199.5 -49.5q-49 0 -118.5 11t-147.5 32v127z" />
<glyph unicode="&#xb9;" horiz-adv-x="829" d="M143 1298l82 148h307v-871h-194v723h-195z" />
<glyph unicode="&#xba;" horiz-adv-x="934" d="M47 1122q0 159 120.5 267t301.5 108q183 0 300.5 -106t117.5 -269q0 -162 -118 -269.5t-300 -107.5q-184 0 -303 108t-119 269zM109 487v123h716v-123h-716zM283 1122q0 -81 49.5 -128.5t134.5 -47.5t134.5 47.5t49.5 128.5t-49.5 128.5t-134.5 47.5t-134.5 -47.5 t-49.5 -128.5z" />
<glyph unicode="&#xbb;" horiz-adv-x="1059" d="M63 836l154 106l356 -455l-352 -454l-149 106l270 346zM485 836l154 106l356 -455l-354 -454l-147 106l268 346z" />
<glyph unicode="&#xbc;" horiz-adv-x="1925" d="M137 1307l78 137h293v-811h-186v674h-185zM449 -39l874 1518h150l-875 -1518h-149zM1161 158v75l445 594h170v-553h96v-116h-96v-158h-170v158h-445zM1352 274h256v283q0 41 2 61.5t6 38.5q-18 -37 -33.5 -64t-32.5 -48z" />
<glyph unicode="&#xbd;" horiz-adv-x="1925" d="M137 1307l78 137h293v-811h-186v674h-185zM449 -39l874 1518h150l-875 -1518h-149zM1184 0l327 381q71 84 96 127.5t25 77.5q0 48 -32.5 76t-88.5 28q-53 0 -84.5 -35t-31.5 -94v-2h-187v12q0 124 79 190t224 66q147 0 228.5 -59.5t81.5 -167.5q0 -122 -215 -359l-11 -12 l-84 -94h310v-135h-637z" />
<glyph unicode="&#xbe;" horiz-adv-x="1923" d="M68 842v8h182v-2q0 -45 37 -72.5t98 -27.5q70 0 107.5 30.5t37.5 87.5q0 60 -39 90.5t-116 30.5q-3 0 -11 -1t-14 -1v143h23q68 0 102.5 26t34.5 77q0 44 -31.5 71t-83.5 27q-53 0 -83.5 -22t-37.5 -64h-174q7 105 85 161t218 56q135 0 213 -58.5t78 -158.5 q0 -69 -42.5 -118t-112.5 -60q82 -17 130 -73.5t48 -137.5q0 -113 -90.5 -178.5t-245.5 -65.5q-141 0 -227 64t-86 168zM449 -39l874 1518h150l-875 -1518h-149zM1161 158v75l445 594h170v-553h96v-116h-96v-158h-170v158h-445zM1352 274h256v283q0 41 2 61.5t6 38.5 q-18 -37 -33.5 -64t-32.5 -48z" />
<glyph unicode="&#xbf;" horiz-adv-x="1186" d="M170 393q0 154 82 251.5t240 129.5v258h274v-428h-88q-103 0 -159 -57.5t-56 -163.5q0 -95 41.5 -146t120.5 -51q80 0 121.5 48.5t41.5 140.5q0 5 -1 15.5t-1 15.5h283v-33q0 -186 -126.5 -299t-334.5 -113q-202 0 -320 116t-118 316zM457 1327q0 71 50 120.5t122 49.5 q71 0 121.5 -50t50.5 -120q0 -71 -50.5 -120.5t-121.5 -49.5q-72 0 -122 49.5t-50 120.5z" />
<glyph unicode="&#xc0;" horiz-adv-x="1460" d="M-10 0l557 1464h358l565 -1464h-356l-119 311h-567l-102 -311h-336zM438 1972h258l197 -369h-142zM516 557h406l-164 473q-7 21 -18 72t-23 125q-13 -71 -25 -127.5t-18 -75.5z" />
<glyph unicode="&#xc1;" horiz-adv-x="1460" d="M-10 0l557 1464h358l565 -1464h-356l-119 311h-567l-102 -311h-336zM516 557h406l-164 473q-7 21 -18 72t-23 125q-13 -71 -25 -127.5t-18 -75.5zM569 1603l197 369h258l-313 -369h-142z" />
<glyph unicode="&#xc2;" horiz-adv-x="1460" d="M-10 0l557 1464h358l565 -1464h-356l-119 311h-567l-102 -311h-336zM416 1603l196 369h238l196 -369h-141l-174 217l-176 -217h-139zM516 557h406l-164 473q-7 21 -18 72t-23 125q-13 -71 -25 -127.5t-18 -75.5z" />
<glyph unicode="&#xc3;" horiz-adv-x="1460" d="M-10 0l557 1464h358l565 -1464h-356l-119 311h-567l-102 -311h-336zM414 1651q26 122 75.5 178.5t128.5 56.5q18 0 40 -3.5t46 -10.5l93 -25q12 -4 25.5 -6t29.5 -2q33 0 54 20.5t32 63.5h110q-28 -127 -78 -184.5t-130 -57.5q-21 0 -39 2.5t-36 8.5l-87 26q-21 6 -36 8 t-30 2q-34 0 -55 -18.5t-33 -58.5h-110zM516 557h406l-164 473q-7 21 -18 72t-23 125q-13 -71 -25 -127.5t-18 -75.5z" />
<glyph unicode="&#xc4;" horiz-adv-x="1460" d="M-10 0l557 1464h358l565 -1464h-356l-119 311h-567l-102 -311h-336zM414 1786q0 51 39.5 90t91.5 39q53 0 91 -38t38 -91q0 -57 -37 -94t-92 -37q-56 0 -93.5 37.5t-37.5 93.5zM516 557h406l-164 473q-7 21 -18 72t-23 125q-13 -71 -25 -127.5t-18 -75.5zM788 1786 q0 51 39.5 90t91.5 39q54 0 91.5 -38t37.5 -91q0 -57 -36.5 -94t-92.5 -37q-55 0 -93 37.5t-38 93.5z" />
<glyph unicode="&#xc5;" horiz-adv-x="1460" d="M-10 0l557 1464h121q-94 19 -147.5 85t-53.5 163q0 108 76 184t184 76q109 0 184.5 -76t75.5 -184q0 -94 -50.5 -159.5t-141.5 -88.5h110l565 -1464h-356l-119 311h-567l-102 -311h-336zM516 557h406l-164 483q-9 30 -20.5 82.5t-20.5 114.5q-12 -70 -23.5 -124 t-19.5 -77zM608 1712q0 -49 35 -84t84 -35q50 0 84.5 34.5t34.5 84.5t-34.5 84.5t-84.5 34.5q-49 0 -84 -35t-35 -84z" />
<glyph unicode="&#xc6;" horiz-adv-x="2038" d="M29 0l557 1464h956l86 -264h-575l96 -309h553l88 -256h-553l119 -369h577l88 -266h-886l-101 317h-567l-102 -317h-336zM555 559h406l-164 471q-10 32 -21 84t-20 112q-10 -61 -21.5 -114.5t-21.5 -87.5z" />
<glyph unicode="&#xc7;" horiz-adv-x="1470" d="M100 731q0 334 225 551t580 217q119 0 230 -25t219 -77l-11 -314q-95 85 -195 124.5t-214 39.5q-234 0 -373 -140t-139 -376q0 -231 129 -366.5t352 -135.5q127 0 236 42.5t202 127.5l-2 -321q-100 -59 -209.5 -88t-230.5 -29q-350 0 -574.5 217.5t-224.5 552.5z M617 -311q80 -21 147 -32t111 -11q51 0 75.5 18.5t24.5 56.5q0 37 -27.5 52.5t-93.5 15.5q-19 0 -32 -0.5t-25 -1.5v213h102v-90h15q116 0 175.5 -48.5t59.5 -144.5q0 -99 -66.5 -148.5t-199.5 -49.5q-49 0 -118.5 11t-147.5 32v127z" />
<glyph unicode="&#xc8;" horiz-adv-x="1169" d="M164 0v1464h862v-264h-549v-301h549v-266h-549v-367h549v-266h-862zM299 1972h258l197 -369h-142z" />
<glyph unicode="&#xc9;" horiz-adv-x="1169" d="M164 0v1464h862v-264h-549v-301h549v-266h-549v-367h549v-266h-862zM430 1603l197 369h258l-313 -369h-142z" />
<glyph unicode="&#xca;" horiz-adv-x="1169" d="M164 0v1464h862v-264h-549v-301h549v-266h-549v-367h549v-266h-862zM277 1603l196 369h238l196 -369h-141l-174 217l-176 -217h-139z" />
<glyph unicode="&#xcb;" horiz-adv-x="1169" d="M164 0v1464h862v-264h-549v-301h549v-266h-549v-367h549v-266h-862zM275 1786q0 51 39.5 90t91.5 39q53 0 91 -38t38 -91q0 -57 -37 -94t-92 -37q-56 0 -93.5 37.5t-37.5 93.5zM649 1786q0 51 39.5 90t91.5 39q54 0 91.5 -38t37.5 -91q0 -57 -36.5 -94t-92.5 -37 q-55 0 -93 37.5t-38 93.5z" />
<glyph unicode="&#xcc;" horiz-adv-x="653" d="M35 1972h258l197 -369h-142zM170 0v1464h313v-1464h-313z" />
<glyph unicode="&#xcd;" horiz-adv-x="653" d="M166 1603l197 369h258l-313 -369h-142zM170 0v1464h313v-1464h-313z" />
<glyph unicode="&#xce;" horiz-adv-x="653" d="M13 1603l196 369h238l196 -369h-141l-174 217l-176 -217h-139zM170 0v1464h313v-1464h-313z" />
<glyph unicode="&#xcf;" horiz-adv-x="653" d="M11 1786q0 51 39.5 90t91.5 39q53 0 91 -38t38 -91q0 -57 -37 -94t-92 -37q-56 0 -93.5 37.5t-37.5 93.5zM170 0v1464h313v-1464h-313zM385 1786q0 51 39.5 90t91.5 39q54 0 91.5 -38t37.5 -91q0 -57 -36.5 -94t-92.5 -37q-55 0 -93 37.5t-38 93.5z" />
<glyph unicode="&#xd0;" horiz-adv-x="1563" d="M0 629v229h182v606h391q238 0 354 -24t210 -80q158 -95 241.5 -257t83.5 -374q0 -194 -70 -345t-204 -249q-101 -72 -223 -103.5t-359 -31.5h-110h-314v629h-182zM496 264h174q246 0 358.5 112t112.5 355q0 239 -115 353t-356 114h-174v-340h323v-229h-323v-365z" />
<glyph unicode="&#xd1;" horiz-adv-x="1708" d="M164 0v1464h325l648 -852q28 -36 61.5 -101.5t69.5 -154.5q-11 65 -16 129t-5 160v819h299v-1464h-307l-666 868q-28 36 -61 101.5t-70 156.5q11 -63 16 -127.5t5 -162.5v-836h-299zM537 1651q26 122 75.5 178.5t128.5 56.5q18 0 40 -3.5t46 -10.5l93 -25q12 -4 25.5 -6 t29.5 -2q33 0 54 20.5t32 63.5h110q-28 -127 -78 -184.5t-130 -57.5q-21 0 -39 2.5t-36 8.5l-87 26q-21 6 -36 8t-30 2q-34 0 -55 -18.5t-33 -58.5h-110z" />
<glyph unicode="&#xd2;" horiz-adv-x="1763" d="M100 729q0 158 58 296.5t170 246.5q110 107 255.5 166t299.5 59q153 0 297.5 -59t255.5 -166q111 -108 169 -247t58 -296t-58.5 -297t-168.5 -246q-114 -109 -257 -167t-296 -58q-134 0 -262.5 45.5t-235.5 130.5q-138 110 -211.5 263t-73.5 329zM422 729 q0 -212 129 -350.5t332 -138.5q199 0 328.5 139.5t129.5 349.5q0 208 -131 350t-327 142q-199 0 -330 -141.5t-131 -350.5zM590 1972h258l197 -369h-142z" />
<glyph unicode="&#xd3;" horiz-adv-x="1763" d="M100 729q0 158 58 296.5t170 246.5q110 107 255.5 166t299.5 59q153 0 297.5 -59t255.5 -166q111 -108 169 -247t58 -296t-58.5 -297t-168.5 -246q-114 -109 -257 -167t-296 -58q-134 0 -262.5 45.5t-235.5 130.5q-138 110 -211.5 263t-73.5 329zM422 729 q0 -212 129 -350.5t332 -138.5q199 0 328.5 139.5t129.5 349.5q0 208 -131 350t-327 142q-199 0 -330 -141.5t-131 -350.5zM721 1603l197 369h258l-313 -369h-142z" />
<glyph unicode="&#xd4;" horiz-adv-x="1763" d="M100 729q0 158 58 296.5t170 246.5q110 107 255.5 166t299.5 59q153 0 297.5 -59t255.5 -166q111 -108 169 -247t58 -296t-58.5 -297t-168.5 -246q-114 -109 -257 -167t-296 -58q-134 0 -262.5 45.5t-235.5 130.5q-138 110 -211.5 263t-73.5 329zM422 729 q0 -212 129 -350.5t332 -138.5q199 0 328.5 139.5t129.5 349.5q0 208 -131 350t-327 142q-199 0 -330 -141.5t-131 -350.5zM568 1603l196 369h238l196 -369h-141l-174 217l-176 -217h-139z" />
<glyph unicode="&#xd5;" horiz-adv-x="1763" d="M100 729q0 158 58 296.5t170 246.5q110 107 255.5 166t299.5 59q153 0 297.5 -59t255.5 -166q111 -108 169 -247t58 -296t-58.5 -297t-168.5 -246q-114 -109 -257 -167t-296 -58q-134 0 -262.5 45.5t-235.5 130.5q-138 110 -211.5 263t-73.5 329zM422 729 q0 -212 129 -350.5t332 -138.5q199 0 328.5 139.5t129.5 349.5q0 208 -131 350t-327 142q-199 0 -330 -141.5t-131 -350.5zM566 1651q26 122 75.5 178.5t128.5 56.5q18 0 40 -3.5t46 -10.5l93 -25q12 -4 25.5 -6t29.5 -2q33 0 54 20.5t32 63.5h110q-28 -127 -78 -184.5 t-130 -57.5q-21 0 -39 2.5t-36 8.5l-87 26q-21 6 -36 8t-30 2q-34 0 -55 -18.5t-33 -58.5h-110z" />
<glyph unicode="&#xd6;" horiz-adv-x="1763" d="M100 729q0 158 58 296.5t170 246.5q110 107 255.5 166t299.5 59q153 0 297.5 -59t255.5 -166q111 -108 169 -247t58 -296t-58.5 -297t-168.5 -246q-114 -109 -257 -167t-296 -58q-134 0 -262.5 45.5t-235.5 130.5q-138 110 -211.5 263t-73.5 329zM422 729 q0 -212 129 -350.5t332 -138.5q199 0 328.5 139.5t129.5 349.5q0 208 -131 350t-327 142q-199 0 -330 -141.5t-131 -350.5zM566 1786q0 51 39.5 90t91.5 39q53 0 91 -38t38 -91q0 -57 -37 -94t-92 -37q-56 0 -93.5 37.5t-37.5 93.5zM940 1786q0 51 39.5 90t91.5 39 q54 0 91.5 -38t37.5 -91q0 -57 -36.5 -94t-92.5 -37q-55 0 -93 37.5t-38 93.5z" />
<glyph unicode="&#xd7;" horiz-adv-x="1706" d="M276 160l451 450l-451 453l140 139l450 -450l451 450l141 -139l-450 -453l450 -450l-141 -140l-451 451l-450 -451z" />
<glyph unicode="&#xd8;" horiz-adv-x="1763" d="M98 23l195 200q-101 118 -148 240.5t-47 267.5q0 155 59.5 295t170.5 248q111 109 255.5 167t301.5 58q130 0 251.5 -43t243.5 -133l193 197l98 -86l-198 -199q96 -109 144 -232.5t48 -265.5q0 -137 -45 -261.5t-133 -229.5q-113 -135 -270 -208t-334 -73q-129 0 -247 39 t-243 123l-194 -197zM422 717q0 -74 19.5 -140.5t62.5 -138.5l670 680q-53 50 -131 77.5t-166 27.5q-198 0 -326.5 -143.5t-128.5 -362.5zM598 336q64 -51 131.5 -73.5t153.5 -22.5q201 0 329.5 140.5t128.5 358.5q0 74 -20 140t-64 135z" />
<glyph unicode="&#xd9;" horiz-adv-x="1583" d="M158 553v911h311v-862q0 -181 80 -272.5t239 -91.5q160 0 242 92t82 272v862h311v-911q0 -298 -157 -445t-473 -147q-321 0 -478 147t-157 445zM500 1972h258l197 -369h-142z" />
<glyph unicode="&#xda;" horiz-adv-x="1583" d="M158 553v911h311v-862q0 -181 80 -272.5t239 -91.5q160 0 242 92t82 272v862h311v-911q0 -298 -157 -445t-473 -147q-321 0 -478 147t-157 445zM631 1603l197 369h258l-313 -369h-142z" />
<glyph unicode="&#xdb;" horiz-adv-x="1583" d="M158 553v911h311v-862q0 -181 80 -272.5t239 -91.5q160 0 242 92t82 272v862h311v-911q0 -298 -157 -445t-473 -147q-321 0 -478 147t-157 445zM478 1603l196 369h238l196 -369h-141l-174 217l-176 -217h-139z" />
<glyph unicode="&#xdc;" horiz-adv-x="1583" d="M158 553v911h311v-862q0 -181 80 -272.5t239 -91.5q160 0 242 92t82 272v862h311v-911q0 -298 -157 -445t-473 -147q-321 0 -478 147t-157 445zM476 1786q0 51 39.5 90t91.5 39q53 0 91 -38t38 -91q0 -57 -37 -94t-92 -37q-56 0 -93.5 37.5t-37.5 93.5zM850 1786 q0 51 39.5 90t91.5 39q54 0 91.5 -38t37.5 -91q0 -57 -36.5 -94t-92.5 -37q-55 0 -93 37.5t-38 93.5z" />
<glyph unicode="&#xdd;" horiz-adv-x="1241" d="M-31 1464h367l217 -401q16 -30 33 -76t35 -106q14 51 31.5 96t39.5 88l215 399h365l-494 -796v-668h-313v668zM459 1603l197 369h258l-313 -369h-142z" />
<glyph unicode="&#xde;" horiz-adv-x="1139" d="M164 0v1464h315v-252h45q287 0 425 -111t138 -341q0 -212 -138.5 -332.5t-383.5 -120.5h-86v-307h-315zM479 549h45q128 0 186 54t58 171q0 108 -57.5 156.5t-186.5 48.5h-45v-430z" />
<glyph unicode="&#xdf;" horiz-adv-x="1235" d="M139 0v1034q0 126 10.5 193t34.5 121q49 104 160.5 162.5t265.5 58.5q221 0 341 -101t120 -286q0 -112 -51.5 -188.5t-175.5 -147.5q148 -19 230.5 -124t82.5 -276q0 -224 -131.5 -346.5t-374.5 -122.5q-25 0 -52 1.5t-56 3.5v229q15 -1 30.5 -1.5t36.5 -0.5 q126 0 193 64t67 184q0 129 -74.5 193.5t-224.5 64.5l-3 -1q-13 -1 -25 -1v223h18q114 0 169.5 54t55.5 163q0 83 -46 131.5t-126 48.5q-109 0 -149.5 -84.5t-40.5 -412.5v-111v-725h-285z" />
<glyph unicode="&#xe0;" horiz-adv-x="1251" d="M78 489q0 248 117.5 386.5t326.5 138.5q109 0 191.5 -49t138.5 -146v162h270v-981h-276l4 141q-58 -93 -139.5 -136.5t-198.5 -43.5q-195 0 -314.5 145t-119.5 383zM352 1495h258l197 -369h-142zM367 492q0 -133 65.5 -207t181.5 -74q118 0 183 74t65 207 q0 132 -66.5 209t-179.5 77q-116 0 -182.5 -76.5t-66.5 -209.5z" />
<glyph unicode="&#xe1;" horiz-adv-x="1251" d="M78 489q0 248 117.5 386.5t326.5 138.5q109 0 191.5 -49t138.5 -146v162h270v-981h-276l4 141q-58 -93 -139.5 -136.5t-198.5 -43.5q-195 0 -314.5 145t-119.5 383zM367 492q0 -133 65.5 -207t181.5 -74q118 0 183 74t65 207q0 132 -66.5 209t-179.5 77 q-116 0 -182.5 -76.5t-66.5 -209.5zM483 1126l197 369h258l-313 -369h-142z" />
<glyph unicode="&#xe2;" horiz-adv-x="1251" d="M78 489q0 248 117.5 386.5t326.5 138.5q109 0 191.5 -49t138.5 -146v162h270v-981h-276l4 141q-58 -93 -139.5 -136.5t-198.5 -43.5q-195 0 -314.5 145t-119.5 383zM330 1126l196 369h238l196 -369h-141l-174 217l-176 -217h-139zM367 492q0 -133 65.5 -207t181.5 -74 q118 0 183 74t65 207q0 132 -66.5 209t-179.5 77q-116 0 -182.5 -76.5t-66.5 -209.5z" />
<glyph unicode="&#xe3;" horiz-adv-x="1251" d="M78 489q0 248 117.5 386.5t326.5 138.5q109 0 191.5 -49t138.5 -146v162h270v-981h-276l4 141q-58 -93 -139.5 -136.5t-198.5 -43.5q-195 0 -314.5 145t-119.5 383zM328 1174q26 122 75.5 178.5t128.5 56.5q18 0 40 -3.5t46 -10.5l93 -25q12 -4 25.5 -6t29.5 -2 q33 0 54 20.5t32 63.5h110q-28 -127 -78 -184.5t-130 -57.5q-21 0 -39 2.5t-36 8.5l-87 26q-21 6 -36 8t-30 2q-34 0 -55 -18.5t-33 -58.5h-110zM367 492q0 -133 65.5 -207t181.5 -74q118 0 183 74t65 207q0 132 -66.5 209t-179.5 77q-116 0 -182.5 -76.5t-66.5 -209.5z" />
<glyph unicode="&#xe4;" horiz-adv-x="1251" d="M78 489q0 248 117.5 386.5t326.5 138.5q109 0 191.5 -49t138.5 -146v162h270v-981h-276l4 141q-58 -93 -139.5 -136.5t-198.5 -43.5q-195 0 -314.5 145t-119.5 383zM328 1309q0 51 39.5 90t91.5 39q53 0 91 -38t38 -91q0 -57 -37 -94t-92 -37q-56 0 -93.5 37.5 t-37.5 93.5zM367 492q0 -133 65.5 -207t181.5 -74q118 0 183 74t65 207q0 132 -66.5 209t-179.5 77q-116 0 -182.5 -76.5t-66.5 -209.5zM702 1309q0 51 39.5 90t91.5 39q54 0 91.5 -38t37.5 -91q0 -57 -36.5 -94t-92.5 -37q-55 0 -93 37.5t-38 93.5z" />
<glyph unicode="&#xe5;" horiz-adv-x="1251" d="M78 489q0 248 117.5 386.5t326.5 138.5q109 0 191.5 -49t138.5 -146v162h270v-981h-276l4 141q-58 -93 -139.5 -136.5t-198.5 -43.5q-195 0 -314.5 145t-119.5 383zM362 1343q0 111 78 189t189 78q110 0 188 -78t78 -189t-77.5 -188.5t-188.5 -77.5t-189 77.5t-78 188.5z M367 492q0 -133 65.5 -207t181.5 -74q118 0 183 74t65 207q0 132 -66.5 209t-179.5 77q-116 0 -182.5 -76.5t-66.5 -209.5zM506 1343q0 -51 35.5 -86.5t87.5 -35.5q50 0 86.5 36t36.5 86q0 51 -36 86t-87 35q-52 0 -87.5 -35t-35.5 -86z" />
<glyph unicode="&#xe6;" horiz-adv-x="1841" d="M61 301q0 148 106.5 237t283.5 89q88 0 161 -17.5t138 -53.5q3 14 4.5 26.5t1.5 23.5q0 94 -78.5 149.5t-210.5 55.5q-79 0 -150.5 -22.5t-162.5 -77.5v229q76 40 160 59t184 19q129 0 227 -37.5t160 -110.5q75 77 159.5 112.5t190.5 35.5q236 0 379 -139.5t143 -368.5 q0 -30 -0.5 -50t-1.5 -40h-768q17 -106 79.5 -158.5t170.5 -52.5q80 0 139 30t99 91l239 -117q-80 -124 -198 -188t-267 -64q-116 0 -205.5 39t-158.5 121q-76 -74 -189 -117t-233 -43q-176 0 -289 96t-113 244zM332 305q0 -61 53.5 -98t142.5 -37q109 0 171.5 37.5 t62.5 101.5q0 63 -59 101.5t-156 38.5q-99 0 -157 -39t-58 -105zM995 592h467q-12 92 -70.5 139t-160.5 47q-100 0 -158.5 -46t-77.5 -140z" />
<glyph unicode="&#xe7;" horiz-adv-x="938" d="M76 492q0 231 147 376.5t381 145.5q78 0 140 -15t118 -47l-2 -286q-45 46 -104 71t-125 25q-120 0 -192 -73.5t-72 -194.5q0 -124 73.5 -197.5t198.5 -73.5q69 0 122.5 25t98.5 78l2 -297q-58 -35 -122 -51.5t-140 -16.5q-232 0 -378 147.5t-146 383.5zM297 -311 q80 -21 147 -32t111 -11q51 0 75.5 18.5t24.5 56.5q0 37 -27.5 52.5t-93.5 15.5q-19 0 -32 -0.5t-25 -1.5v213h102v-90h15q116 0 175.5 -48.5t59.5 -144.5q0 -99 -66.5 -148.5t-199.5 -49.5q-49 0 -118.5 11t-147.5 32v127z" />
<glyph unicode="&#xe8;" horiz-adv-x="1174" d="M78 485q0 231 145.5 380t372.5 149q234 0 370 -139.5t136 -380.5q0 -13 -1 -28.5t-4 -45.5h-737q17 -106 77 -158.5t163 -52.5q78 0 134.5 30t94.5 91l230 -115q-80 -129 -194 -191.5t-271 -62.5q-238 0 -377 142t-139 382zM295 1495h258l197 -369h-142zM369 592h446 q-12 93 -67.5 140.5t-151.5 47.5t-153.5 -47.5t-73.5 -140.5z" />
<glyph unicode="&#xe9;" horiz-adv-x="1174" d="M78 485q0 231 145.5 380t372.5 149q234 0 370 -139.5t136 -380.5q0 -13 -1 -28.5t-4 -45.5h-737q17 -106 77 -158.5t163 -52.5q78 0 134.5 30t94.5 91l230 -115q-80 -129 -194 -191.5t-271 -62.5q-238 0 -377 142t-139 382zM369 592h446q-12 93 -67.5 140.5t-151.5 47.5 t-153.5 -47.5t-73.5 -140.5zM426 1126l197 369h258l-313 -369h-142z" />
<glyph unicode="&#xea;" horiz-adv-x="1174" d="M78 485q0 231 145.5 380t372.5 149q234 0 370 -139.5t136 -380.5q0 -13 -1 -28.5t-4 -45.5h-737q17 -106 77 -158.5t163 -52.5q78 0 134.5 30t94.5 91l230 -115q-80 -129 -194 -191.5t-271 -62.5q-238 0 -377 142t-139 382zM273 1126l196 369h238l196 -369h-141l-174 217 l-176 -217h-139zM369 592h446q-12 93 -67.5 140.5t-151.5 47.5t-153.5 -47.5t-73.5 -140.5z" />
<glyph unicode="&#xeb;" horiz-adv-x="1174" d="M78 485q0 231 145.5 380t372.5 149q234 0 370 -139.5t136 -380.5q0 -13 -1 -28.5t-4 -45.5h-737q17 -106 77 -158.5t163 -52.5q78 0 134.5 30t94.5 91l230 -115q-80 -129 -194 -191.5t-271 -62.5q-238 0 -377 142t-139 382zM271 1309q0 51 39.5 90t91.5 39q53 0 91 -38 t38 -91q0 -57 -37 -94t-92 -37q-56 0 -93.5 37.5t-37.5 93.5zM369 592h446q-12 93 -67.5 140.5t-151.5 47.5t-153.5 -47.5t-73.5 -140.5zM645 1309q0 51 39.5 90t91.5 39q54 0 91.5 -38t37.5 -91q0 -57 -36.5 -94t-92.5 -37q-55 0 -93 37.5t-38 93.5z" />
<glyph unicode="&#xec;" horiz-adv-x="584" d="M0 1495h258l197 -369h-142zM150 0v981h284v-981h-284z" />
<glyph unicode="&#xed;" horiz-adv-x="584" d="M131 1126l197 369h258l-313 -369h-142zM150 0v981h284v-981h-284z" />
<glyph unicode="&#xee;" horiz-adv-x="584" d="M-22 1126l196 369h238l196 -369h-141l-174 217l-176 -217h-139zM150 0v981h284v-981h-284z" />
<glyph unicode="&#xef;" horiz-adv-x="584" d="M-24 1309q0 51 39.5 90t91.5 39q53 0 91 -38t38 -91q0 -57 -37 -94t-92 -37q-56 0 -93.5 37.5t-37.5 93.5zM150 0v981h284v-981h-284zM350 1309q0 51 39.5 90t91.5 39q54 0 91.5 -38t37.5 -91q0 -57 -36.5 -94t-92.5 -37q-55 0 -93 37.5t-38 93.5z" />
<glyph unicode="&#xf0;" horiz-adv-x="1276" d="M76 467q0 208 144 352t353 144q69 0 128 -16.5t112 -49.5q-55 83 -116 148t-132 114l-334 -160l-69 127l270 127q-36 25 -75 47t-97 50l117 196q67 -29 141.5 -73t159.5 -105l319 156l76 -127l-264 -127q187 -177 271.5 -351t84.5 -382q0 -274 -142 -425t-398 -151 q-239 0 -394 144.5t-155 361.5zM365 475q0 -114 69.5 -182t188.5 -68q118 0 188 68t70 182q0 115 -70 182.5t-188 67.5q-119 0 -188.5 -67.5t-69.5 -182.5z" />
<glyph unicode="&#xf1;" horiz-adv-x="1266" d="M139 0v981h279v-154q77 96 165.5 141.5t196.5 45.5q114 0 191.5 -38.5t122.5 -117.5q22 -41 31.5 -92.5t9.5 -161.5v-31v-573h-285v485q0 181 -42 239t-144 58q-59 0 -108.5 -24.5t-82.5 -69.5q-26 -35 -37.5 -80t-11.5 -137v-39v-432h-285zM316 1174q26 122 75.5 178.5 t128.5 56.5q18 0 40 -3.5t46 -10.5l93 -25q12 -4 25.5 -6t29.5 -2q33 0 54 20.5t32 63.5h110q-28 -127 -78 -184.5t-130 -57.5q-21 0 -39 2.5t-36 8.5l-87 26q-21 6 -36 8t-30 2q-34 0 -55 -18.5t-33 -58.5h-110z" />
<glyph unicode="&#xf2;" horiz-adv-x="1247" d="M76 487q0 225 156 376t393 151q238 0 392 -149t154 -378q0 -226 -154.5 -376t-391.5 -150q-239 0 -394 150t-155 376zM332 1495h258l197 -369h-142zM367 489q0 -120 69 -192t187 -72q117 0 187.5 72t70.5 192t-70 191.5t-188 71.5t-187 -71t-69 -192z" />
<glyph unicode="&#xf3;" horiz-adv-x="1247" d="M76 487q0 225 156 376t393 151q238 0 392 -149t154 -378q0 -226 -154.5 -376t-391.5 -150q-239 0 -394 150t-155 376zM367 489q0 -120 69 -192t187 -72q117 0 187.5 72t70.5 192t-70 191.5t-188 71.5t-187 -71t-69 -192zM463 1126l197 369h258l-313 -369h-142z" />
<glyph unicode="&#xf4;" horiz-adv-x="1247" d="M76 487q0 225 156 376t393 151q238 0 392 -149t154 -378q0 -226 -154.5 -376t-391.5 -150q-239 0 -394 150t-155 376zM310 1126l196 369h238l196 -369h-141l-174 217l-176 -217h-139zM367 489q0 -120 69 -192t187 -72q117 0 187.5 72t70.5 192t-70 191.5t-188 71.5 t-187 -71t-69 -192z" />
<glyph unicode="&#xf5;" horiz-adv-x="1247" d="M76 487q0 225 156 376t393 151q238 0 392 -149t154 -378q0 -226 -154.5 -376t-391.5 -150q-239 0 -394 150t-155 376zM308 1174q26 122 75.5 178.5t128.5 56.5q18 0 40 -3.5t46 -10.5l93 -25q12 -4 25.5 -6t29.5 -2q33 0 54 20.5t32 63.5h110q-28 -127 -78 -184.5 t-130 -57.5q-21 0 -39 2.5t-36 8.5l-87 26q-21 6 -36 8t-30 2q-34 0 -55 -18.5t-33 -58.5h-110zM367 489q0 -120 69 -192t187 -72q117 0 187.5 72t70.5 192t-70 191.5t-188 71.5t-187 -71t-69 -192z" />
<glyph unicode="&#xf6;" horiz-adv-x="1247" d="M76 487q0 225 156 376t393 151q238 0 392 -149t154 -378q0 -226 -154.5 -376t-391.5 -150q-239 0 -394 150t-155 376zM308 1309q0 51 39.5 90t91.5 39q53 0 91 -38t38 -91q0 -57 -37 -94t-92 -37q-56 0 -93.5 37.5t-37.5 93.5zM367 489q0 -120 69 -192t187 -72 q117 0 187.5 72t70.5 192t-70 191.5t-188 71.5t-187 -71t-69 -192zM682 1309q0 51 39.5 90t91.5 39q54 0 91.5 -38t37.5 -91q0 -57 -36.5 -94t-92.5 -37q-55 0 -93 37.5t-38 93.5z" />
<glyph unicode="&#xf7;" horiz-adv-x="1706" d="M254 512v199h1198v-199h-1198zM702 217q0 63 44.5 107.5t107.5 44.5q62 0 107 -45t45 -107q0 -61 -45 -105t-107 -44q-63 0 -107.5 43t-44.5 106zM702 1004q0 63 44.5 107t107.5 44q62 0 107 -44.5t45 -106.5q0 -63 -44.5 -107.5t-107.5 -44.5t-107.5 44.5t-44.5 107.5z " />
<glyph unicode="&#xf8;" horiz-adv-x="1247" d="M43 45l139 127q-52 63 -78 141.5t-26 171.5q0 228 155 378.5t392 150.5q105 0 186 -26t166 -85l143 133l86 -86l-147 -137q59 -71 85.5 -150t26.5 -184q0 -219 -155.5 -368.5t-390.5 -149.5q-110 0 -202 31.5t-157 91.5l-151 -139zM365 485q0 -34 6 -63.5t18 -56.5 l381 348q-38 20 -75 29.5t-81 9.5q-113 0 -181 -72t-68 -195zM467 270q36 -23 73 -34t89 -11q115 0 185.5 73t70.5 191q0 35 -8.5 66t-28.5 68z" />
<glyph unicode="&#xf9;" horiz-adv-x="1268" d="M135 465v516h283v-516q0 -130 50.5 -186t164.5 -56q113 0 164 56.5t51 185.5v516h285v-516q0 -259 -121 -381.5t-375 -122.5q-259 0 -380.5 122t-121.5 382zM342 1495h258l197 -369h-142z" />
<glyph unicode="&#xfa;" horiz-adv-x="1268" d="M135 465v516h283v-516q0 -130 50.5 -186t164.5 -56q113 0 164 56.5t51 185.5v516h285v-516q0 -259 -121 -381.5t-375 -122.5q-259 0 -380.5 122t-121.5 382zM473 1126l197 369h258l-313 -369h-142z" />
<glyph unicode="&#xfb;" horiz-adv-x="1268" d="M135 465v516h283v-516q0 -130 50.5 -186t164.5 -56q113 0 164 56.5t51 185.5v516h285v-516q0 -259 -121 -381.5t-375 -122.5q-259 0 -380.5 122t-121.5 382zM320 1126l196 369h238l196 -369h-141l-174 217l-176 -217h-139z" />
<glyph unicode="&#xfc;" horiz-adv-x="1268" d="M135 465v516h283v-516q0 -130 50.5 -186t164.5 -56q113 0 164 56.5t51 185.5v516h285v-516q0 -259 -121 -381.5t-375 -122.5q-259 0 -380.5 122t-121.5 382zM318 1309q0 51 39.5 90t91.5 39q53 0 91 -38t38 -91q0 -57 -37 -94t-92 -37q-56 0 -93.5 37.5t-37.5 93.5z M692 1309q0 51 39.5 90t91.5 39q54 0 91.5 -38t37.5 -91q0 -57 -36.5 -94t-92.5 -37q-55 0 -93 37.5t-38 93.5z" />
<glyph unicode="&#xfd;" horiz-adv-x="1053" d="M-14 981h329l170 -449q17 -42 28 -96.5t17 -121.5q10 54 25 110t37 119l149 438h326l-584 -1427h-315l213 522zM364 1126l197 369h258l-313 -369h-142z" />
<glyph unicode="&#xfe;" horiz-adv-x="1266" d="M139 -446v1996h285v-592q0 -39 -3 -72.5t-9 -66.5q56 98 137.5 146.5t189.5 48.5q209 0 327 -138.5t118 -386.5q0 -239 -119 -383.5t-313 -144.5q-117 0 -198.5 43.5t-139.5 136.5q5 -34 7.5 -72t2.5 -108v-407h-285zM399 492q0 -133 65.5 -207t182.5 -74q118 0 183 73.5 t65 207.5q0 133 -66.5 209.5t-183.5 76.5q-113 0 -179.5 -76.5t-66.5 -209.5z" />
<glyph unicode="&#xff;" horiz-adv-x="1053" d="M-14 981h329l170 -449q17 -42 28 -96.5t17 -121.5q10 54 25 110t37 119l149 438h326l-584 -1427h-315l213 522zM209 1309q0 51 39.5 90t91.5 39q53 0 91 -38t38 -91q0 -57 -37 -94t-92 -37q-56 0 -93.5 37.5t-37.5 93.5zM583 1309q0 51 39.5 90t91.5 39q54 0 91.5 -38 t37.5 -91q0 -57 -36.5 -94t-92.5 -37q-55 0 -93 37.5t-38 93.5z" />
<glyph unicode="&#x152;" horiz-adv-x="2339" d="M115 731q0 153 57.5 292.5t167.5 252.5q110 112 244 166.5t297 54.5q152 0 266.5 -50t200.5 -155l-2 172h862v-264h-549v-301h549v-266h-549v-367h549v-266h-862l-3 166q-75 -103 -188 -152t-274 -49q-133 0 -257.5 44.5t-228.5 129.5q-134 112 -207 266t-73 326z M438 729q0 -213 126 -351t325 -138q201 0 325.5 135t124.5 354q0 216 -125.5 355t-324.5 139q-194 0 -322.5 -142.5t-128.5 -351.5z" />
<glyph unicode="&#x153;" horiz-adv-x="2050" d="M76 487q0 226 156.5 376.5t394.5 150.5q134 0 228 -46t161 -143q69 98 164.5 143.5t232.5 45.5q246 0 389.5 -136t143.5 -368q0 -30 -0.5 -49.5t-2.5 -40.5h-767q16 -106 78.5 -158.5t170.5 -52.5q81 0 139.5 30t98.5 91l242 -115q-80 -125 -199.5 -189.5t-273.5 -64.5 q-144 0 -251.5 47t-162.5 133q-78 -94 -173.5 -137t-228.5 -43q-233 0 -386.5 150.5t-153.5 375.5zM365 487q0 -120 70 -192t188 -72q117 0 187.5 72t70.5 192q0 121 -70.5 193t-187.5 72q-118 0 -188 -72t-70 -193zM1184 592h467q-13 92 -71.5 140t-160.5 48 q-99 0 -158 -47t-77 -141z" />
<glyph unicode="&#x178;" horiz-adv-x="1241" d="M-31 1464h367l217 -401q16 -30 33 -76t35 -106q14 51 31.5 96t39.5 88l215 399h365l-494 -796v-668h-313v668zM304 1786q0 51 39.5 90t91.5 39q53 0 91 -38t38 -91q0 -57 -37 -94t-92 -37q-56 0 -93.5 37.5t-37.5 93.5zM678 1786q0 51 39.5 90t91.5 39q54 0 91.5 -38 t37.5 -91q0 -57 -36.5 -94t-92.5 -37q-55 0 -93 37.5t-38 93.5z" />
<glyph unicode="&#x2c6;" horiz-adv-x="1024" d="M197 1126l196 369h238l196 -369h-141l-174 217l-176 -217h-139z" />
<glyph unicode="&#x2dc;" horiz-adv-x="1024" d="M195 1174q26 122 75.5 178.5t128.5 56.5q18 0 40 -3.5t46 -10.5l93 -25q12 -4 25.5 -6t29.5 -2q33 0 54 20.5t32 63.5h110q-28 -127 -78 -184.5t-130 -57.5q-21 0 -39 2.5t-36 8.5l-87 26q-21 6 -36 8t-30 2q-34 0 -55 -18.5t-33 -58.5h-110z" />
<glyph unicode="&#x2000;" horiz-adv-x="986" />
<glyph unicode="&#x2001;" horiz-adv-x="1972" />
<glyph unicode="&#x2002;" horiz-adv-x="986" />
<glyph unicode="&#x2003;" horiz-adv-x="1972" />
<glyph unicode="&#x2004;" horiz-adv-x="657" />
<glyph unicode="&#x2005;" horiz-adv-x="493" />
<glyph unicode="&#x2006;" horiz-adv-x="328" />
<glyph unicode="&#x2007;" horiz-adv-x="328" />
<glyph unicode="&#x2008;" horiz-adv-x="246" />
<glyph unicode="&#x2009;" horiz-adv-x="394" />
<glyph unicode="&#x200a;" horiz-adv-x="109" />
<glyph unicode="&#x2010;" horiz-adv-x="854" d="M147 362v252h560v-252h-560z" />
<glyph unicode="&#x2011;" horiz-adv-x="854" d="M147 362v252h560v-252h-560z" />
<glyph unicode="&#x2012;" horiz-adv-x="854" d="M147 362v252h560v-252h-560z" />
<glyph unicode="&#x2013;" horiz-adv-x="1024" d="M0 393v191h1024v-191h-1024z" />
<glyph unicode="&#x2014;" horiz-adv-x="2048" d="M0 393v191h2048v-191h-2048z" />
<glyph unicode="&#x2018;" horiz-adv-x="629" d="M63 838l310 626h190l-190 -626h-310z" />
<glyph unicode="&#x2019;" horiz-adv-x="629" d="M63 838l193 626h307l-309 -626h-191z" />
<glyph unicode="&#x201a;" horiz-adv-x="629" d="M63 -332l193 627h307l-309 -627h-191z" />
<glyph unicode="&#x201c;" horiz-adv-x="1090" d="M51 838l309 626h191l-191 -626h-309zM539 838l309 626h190l-190 -626h-309z" />
<glyph unicode="&#x201d;" horiz-adv-x="1090" d="M51 838l193 626h307l-309 -626h-191zM539 838l190 626h309l-309 -626h-190z" />
<glyph unicode="&#x201e;" horiz-adv-x="1090" d="M51 -332l193 627h307l-309 -627h-191zM539 -332l190 627h309l-309 -627h-190z" />
<glyph unicode="&#x2022;" horiz-adv-x="1208" d="M307 762q0 123 87 209t210 86q122 0 208.5 -86.5t86.5 -208.5t-87.5 -209.5t-209.5 -87.5q-123 0 -209 87t-86 210z" />
<glyph unicode="&#x2026;" horiz-adv-x="2048" d="M168 141q0 72 50.5 123t121.5 51t121.5 -51t50.5 -123q0 -71 -50 -120.5t-122 -49.5q-71 0 -121.5 50t-50.5 120zM850 141q0 72 50.5 123t121.5 51t121.5 -51t50.5 -123q0 -71 -50 -120.5t-122 -49.5q-71 0 -121.5 50t-50.5 120zM1534 141q0 72 50.5 123t121.5 51 t121.5 -51t50.5 -123q0 -71 -50 -120.5t-122 -49.5q-71 0 -121.5 50t-50.5 120z" />
<glyph unicode="&#x202f;" horiz-adv-x="394" />
<glyph unicode="&#x2039;" horiz-adv-x="639" d="M66 487l356 455l153 -106l-278 -351l270 -346l-149 -106z" />
<glyph unicode="&#x203a;" horiz-adv-x="639" d="M66 836l153 106l356 -455l-354 -454l-149 106l270 346z" />
<glyph unicode="&#x205f;" horiz-adv-x="493" />
<glyph unicode="&#x20ac;" d="M0 541l27 116l131 1q-1 11 -1.5 24.5t-0.5 40.5q0 30 0.5 45.5t0.5 28.5h-157l27 118h147q51 261 227 412.5t430 151.5q98 0 186 -29.5t167 -87.5v-297q-74 77 -156 115.5t-172 38.5q-135 0 -231.5 -80.5t-135.5 -223.5h539l-39 -118l-522 -1q-1 -12 -1.5 -27.5 t-0.5 -45.5q0 -27 0.5 -40.5t1.5 -24.5l477 -1l-41 -116h-422q34 -150 129.5 -234t231.5 -84q94 0 185.5 37.5t164.5 106.5l-10 -299q-80 -52 -171 -79.5t-182 -27.5q-260 0 -435 154t-222 426h-172z" />
<glyph unicode="&#x2122;" horiz-adv-x="1706" d="M207 1350v112h485v-112h-168v-435h-149v435h-168zM803 915v547h196l127 -332l123 332h197v-547h-135v410l-154 -410h-61l-158 410v-410h-135z" />
<glyph unicode="&#x25fc;" horiz-adv-x="980" d="M0 0v980h980v-980h-980z" />
</font>
</defs>
</svg>
